<svg xmlns="http://www.w3.org/2000/svg" width="30" height="30"><path fill="#707E89" d="M10.57 15.27h13.76c.28 0 .5.22.5.5 0 .26-.22.48-.5.48H10.58c-.27 0-.5-.22-.5-.5 0-.26.23-.48.5-.48zm-.98-3.94H25.3c.27 0 .5.22.5.5 0 .27-.23.5-.5.5H9.6c-.3 0-.5-.23-.5-.5 0-.28.2-.5.5-.5zM.72 3.47c-.64 0-.65.98 0 .98h3.54c.08.34.63 2.76 1.3 5.64.7 3.06 1.42 7.2 1.57 7.75.13.5.26 1.04.6 1.52.37.48 1 .8 1.85.8H25.3c.84 0 1.47-.32 1.83-.8.36-.48.48-1.03.6-1.52.27-.98 1.6-6.83 1.87-7.82.15-.55.2-1.13.02-1.66-.18-.53-.7-.97-1.37-.97H8.6c-.64 0-.65.98 0 .98h19.67c.32 0 .36.07.44.3.1.24.08.67-.03 1.1-.26.97-1.6 6.83-1.86 7.82-.12.5-.25.93-.44 1.18-.2.26-.4.42-1.04.42H9.6c-.64 0-.86-.16-1.06-.42-.2-.25-.3-.7-.45-1.18-.12-.42-.87-4.66-1.57-7.73-.7-3.07-1.38-6.02-1.38-6.02-.05-.23-.25-.38-.48-.38H.73zm22.62 17.7c-1.35 0-2.46 1.1-2.46 2.45 0 1.36 1.1 2.46 2.45 2.46s2.46-1.1 2.46-2.46c0-1.35-1.1-2.45-2.45-2.45zm0 .98c.82 0 1.48.65 1.48 1.47s-.65 1.48-1.48 1.48c-.82 0-1.47-.65-1.47-1.48s.65-1.47 1.47-1.47zm-11.8-.98c-1.35 0-2.46 1.1-2.46 2.45 0 1.36 1.1 2.46 2.45 2.46S14 24.98 14 23.62c0-1.35-1.1-2.45-2.45-2.45zm0 .98c.82 0 1.48.65 1.48 1.47s-.66 1.48-1.48 1.48-1.47-.65-1.47-1.48.65-1.47 1.47-1.47z"/></svg>