<svg enable-background="new 0 0 43 43" viewBox="0 0 43 43" xml:space="preserve" xmlns="http://www.w3.org/2000/svg"><path d="M21.498,42.916c11.793,0,21.338-9.554,21.338-21.346c0-11.767-9.545-21.33-21.329-21.33 C9.706,0.231,0.16,9.776,0.16,21.57c0,11.792,9.554,21.363,21.338,21.363" fill="#707E89"/><path d="m35.315 13.349c-1.025 0.445-2.11 0.752-3.247 0.889 1.162-0.702 2.051-1.812 2.479-3.136-1.112 0.658-2.326 1.128-3.59 1.367-1.042-1.094-2.513-1.777-4.146-1.777-3.127 0-5.665 2.538-5.665 5.666 0 0.444 0.05 0.872 0.146 1.282-4.718-0.231-8.888-2.479-11.691-5.913-0.487 0.837-0.769 1.811-0.769 2.845 0 1.965 1 3.708 2.521 4.726-0.897-0.026-1.777-0.256-2.564-0.709v0.086c0 2.734 1.966 5.023 4.547 5.555-0.496 0.12-1 0.187-1.504 0.187-0.367 0-0.718-0.033-1.068-0.102 0.718 2.256 2.821 3.896 5.298 3.931-1.948 1.539-4.392 2.435-7.05 2.435-0.453 0-0.905-0.024-1.35-0.084 2.512 1.624 5.486 2.547 8.69 2.547 10.427 0 16.117-8.631 16.117-16.126v-0.727c1.094-0.794 2.051-1.794 2.819-2.922l0.027-0.02z" fill="#fff"/></svg>