<svg xmlns="http://www.w3.org/2000/svg" xmlns:xlink="http://www.w3.org/1999/xlink" x="0px" y="0px" width="43px" height="43px" viewBox="0 0 43 43" enable-background="new 0 0 43 43" xml:space="preserve"><path fill="#707E89" d="M21.456,42.831c11.769,0,21.296-9.534,21.296-21.304c0-11.744-9.527-21.288-21.287-21.288	C9.687,0.231,0.16,9.758,0.16,21.527s9.535,21.321,21.296,21.321"/><path fill="#FFFFFF" d="M14.667,17.092h2.9v-2.831c0-1.245,0.042-3.156,0.938-4.35c0.964-1.279,2.277-2.132,4.521-2.132	c3.667,0,5.228,0.529,5.228,0.529l-0.733,4.307c0,0-1.211-0.341-2.345-0.341c-1.135,0-2.149,0.4-2.149,1.535v3.283h4.64	l-0.325,4.213h-4.314V35.94h-5.458V21.297h-2.9V17.092z"/></svg>