<svg xmlns="http://www.w3.org/2000/svg" xmlns:xlink="http://www.w3.org/1999/xlink" x="0px" y="0px" width="22px" height="22px" viewBox="0 0 22 22" enable-background="new 0 0 22 22" xml:space="preserve"><path fill="#707E89" d="M21.472,21.157l-6.063-6.32c1.547-1.553,2.502-3.698,2.502-6.063c0-4.729-3.843-8.594-8.579-8.594	c-4.736,0-8.601,3.865-8.601,8.594c0,4.729,3.865,8.594,8.594,8.594c2.076,0,3.986-0.742,5.478-1.97l6.094,6.327	c0.076,0.076,0.182,0.129,0.289,0.129c0.104,0,0.211-0.038,0.287-0.113C21.639,21.59,21.639,21.323,21.472,21.157z M9.331,16.55	c-4.304,0-7.79-3.486-7.79-7.775s3.486-7.775,7.79-7.775c4.305,0,7.775,3.486,7.775,7.775S13.62,16.55,9.331,16.55z"/></svg>