<svg xmlns="http://www.w3.org/2000/svg" xmlns:xlink="http://www.w3.org/1999/xlink" x="0px" y="0px" width="43px" height="43px" viewBox="0 0 43 43" enable-background="new 0 0 43 43" xml:space="preserve"><path fill="#707E89" d="M21.625,0.48c11.622,0,21.145,9.509,21.145,21.145c0,11.622-9.509,21.145-21.145,21.145	c-11.623,0-21.145-9.509-21.145-21.145S9.989,0.48,21.625,0.48z"/><path fill="#FFFFFF" d="M32.323,20.437v-2.378h-2.378v2.378h-2.377v2.377h2.377v2.378h2.378v-2.378H34.7v-2.377H32.323z	 M20.304,17.663l2.114-2.113c0,0-7.166-6.379-13.01,2.397c0,0-2.939,5.311,2.1,10.157c0,0,4.121,3.592,9.747,0.759	c0,0,4.569-2.245,3.407-8.287h-7.527v2.642h4.754c0,0-0.08,2.562-3.5,3.79c0,0-3.717,1.01-5.93-2.522c0,0-2.034-3.778,1.123-6.802	c-0.013,0,2.958-2.925,6.723-0.013V17.663z"/></svg>